<svg width="43" height="62" viewBox="0 0 43 62" fill="none" xmlns="http://www.w3.org/2000/svg">
<g clip-path="url(#clip0_2089_226)">
<path opacity="0.2" d="M35 58.4C35 60.4 28.8 62 21.2 62C13.6 62 7.40002 60.4 7.40002 58.4C7.40002 56.4 13.6 54.8 21.2 54.8C28.8 54.7 35 56.4 35 58.4Z" fill="#05141F"/>
<path d="M21.4 0C9.6 0 0 9.6 0 21.4C0 34 21.4 58.5 21.4 58.5C21.4 58.5 42.8 35 42.8 21.4C42.8 9.6 33.2 0 21.4 0ZM21.4 33.7C14.1 33.7 8.2 27.8 8.2 20.5C8.2 13.2 14.1 7.3 21.4 7.3C28.7 7.3 34.6 13.2 34.6 20.5C34.6 27.8 28.7 33.7 21.4 33.7Z" fill="#010101"/>
<path d="M21.7 38.4C30.9232 38.4 38.4 30.9232 38.4 21.7C38.4 12.4768 30.9232 5 21.7 5C12.4768 5 5 12.4768 5 21.7C5 30.9232 12.4768 38.4 21.7 38.4Z" fill="white"/>
<g clip-path="url(#clip1_2089_226)">
<path d="M8.22564 17.9599C8.33553 17.9595 8.44543 17.959 8.55865 17.9585C8.73918 17.9603 8.73918 17.9603 8.92336 17.9622C9.05025 17.9621 9.17713 17.9621 9.30786 17.962C9.72819 17.9622 10.1485 17.9648 10.5688 17.9674C10.8598 17.9681 11.1509 17.9685 11.442 17.9689C12.1303 17.97 12.8187 17.9726 13.507 17.976C14.2907 17.9797 15.0744 17.9816 15.8582 17.9832C17.4703 17.9867 19.0823 17.9926 20.6944 18C20.6944 18.5133 20.6944 19.0267 20.6944 19.5556C16.7449 19.5556 12.7954 19.5556 8.72616 19.5556C8.66612 20.2588 8.66612 20.2588 8.84124 20.5556C8.97379 20.5562 9.10633 20.5569 9.2429 20.5575C10.4925 20.5639 11.7421 20.572 12.9917 20.5817C13.6341 20.5867 14.2765 20.5911 14.919 20.594C15.5391 20.5969 16.1591 20.6014 16.7792 20.607C17.0156 20.6089 17.2521 20.6102 17.4886 20.6108C17.82 20.6119 18.1514 20.615 18.4828 20.6186C18.6292 20.6184 18.6292 20.6184 18.7785 20.6181C19.3482 20.6269 19.7389 20.6989 20.2341 21C20.7302 21.5286 20.7186 22.0669 20.7232 22.75C20.7256 22.8374 20.7279 22.9247 20.7304 23.0148C20.7344 23.6 20.6631 24.0385 20.3492 24.5556C19.7424 25.076 19.2066 25.0613 18.4183 25.0505C18.2947 25.0505 18.1711 25.0506 18.0438 25.0507C17.6366 25.0503 17.2294 25.0469 16.8222 25.0434C16.5393 25.0426 16.2565 25.0419 15.9737 25.0415C15.2302 25.0398 14.4867 25.0354 13.7432 25.0305C12.9841 25.026 12.2251 25.0239 11.466 25.0217C9.97733 25.0169 8.48865 25.0094 6.99997 25C6.99997 24.4867 6.99997 23.9733 6.99997 23.4444C7.14677 23.4433 7.29357 23.4422 7.44482 23.441C8.82501 23.4301 10.2052 23.4187 11.5854 23.4067C12.295 23.4006 13.0047 23.3947 13.7143 23.3892C14.3986 23.3839 15.0828 23.3781 15.767 23.3719C16.0287 23.3696 16.2904 23.3675 16.552 23.3657C16.9172 23.363 17.2823 23.3597 17.6475 23.3561C17.7568 23.3555 17.8662 23.3549 17.9788 23.3542C18.4536 23.3956 18.4536 23.3956 18.8531 23.2222C18.8579 22.963 18.858 22.7037 18.8531 22.4444C18.7223 22.4438 18.5914 22.4431 18.4566 22.4425C17.2223 22.4361 15.988 22.428 14.7536 22.4183C14.1191 22.4133 13.4846 22.4089 12.85 22.406C12.2374 22.4031 11.6248 22.3986 11.0122 22.393C10.7787 22.3911 10.5452 22.3898 10.3117 22.3892C9.98418 22.3881 9.65671 22.385 9.32917 22.3814C9.23307 22.3815 9.13697 22.3817 9.03795 22.3819C8.42885 22.3724 8.00166 22.2748 7.46029 22C6.9228 21.4464 6.97543 20.8465 6.9712 20.1319C6.96883 20.033 6.96645 19.9341 6.96401 19.8322C6.95987 19.1581 7.04622 18.693 7.4964 18.1515C7.7519 17.952 7.89939 17.9589 8.22564 17.9599Z" fill="black"/>
<path d="M22.3055 20.6667C26.8247 20.6667 31.3439 20.6667 36 20.6667C36 21.2167 36 21.7667 36 22.3333C34.2313 22.3359 32.4626 22.3379 30.6939 22.3391C29.8728 22.3397 29.0516 22.3404 28.2304 22.3417C27.5149 22.3428 26.7994 22.3435 26.084 22.3438C25.7049 22.3439 25.3258 22.3443 24.9467 22.3451C24.5242 22.3459 24.1018 22.346 23.6792 22.3459C23.4894 22.3465 23.4894 22.3465 23.2957 22.3472C23.1813 22.347 23.0668 22.3469 22.9489 22.3467C22.8489 22.3468 22.7489 22.3469 22.6458 22.347C22.4197 22.3333 22.4197 22.3333 22.3055 22.2222C22.3055 21.7089 22.3055 21.1956 22.3055 20.6667Z" fill="black"/>
<path d="M22.3055 23.4444C26.8247 23.4444 31.3439 23.4444 36 23.4444C36 23.9578 36 24.4711 36 25C31.4808 25 26.9617 25 22.3055 25C22.3055 24.4867 22.3055 23.9733 22.3055 23.4444Z" fill="black"/>
<path d="M22.3055 18C26.8247 18 31.3439 18 36 18C36 18.5133 36 19.0267 36 19.5556C31.4808 19.5556 26.9617 19.5556 22.3055 19.5556C22.3055 19.0422 22.3055 18.5289 22.3055 18Z" fill="black"/>
</g>
</g>
<defs>
<clipPath id="clip0_2089_226">
<rect width="42.8" height="62" fill="white"/>
</clipPath>
<clipPath id="clip1_2089_226">
<rect width="29" height="7" fill="white" transform="translate(7 18)"/>
</clipPath>
</defs>
</svg>
