<?xml version="1.0" encoding="UTF-8"?>
<svg version="1.1" xmlns="http://www.w3.org/2000/svg" width="964" height="63">
<path d="M0 0 C0.94513458 -0.00137466 1.89026917 -0.00274933 2.86404419 -0.00416565 C4.42418243 0.00122726 4.42418243 0.00122726 6.01583862 0.00672913 C7.10853058 0.0065831 8.20122253 0.00643707 9.32702637 0.00628662 C12.95232096 0.00698538 16.57756468 0.01477609 20.20285034 0.02259827 C22.71105928 0.02446258 25.21926859 0.02588642 27.72747803 0.02688599 C33.66313583 0.03031891 39.59877721 0.03820688 45.53442657 0.04823548 C52.95384581 0.06049947 60.37326731 0.06587822 67.79269409 0.07142639 C81.03098468 0.08216192 94.2692601 0.0990458 107.50753784 0.12025452 C107.53459513 1.89100369 107.55395979 3.66187162 107.57003784 5.43275452 C107.5816394 6.41888733 107.59324097 7.40502014 107.60519409 8.42103577 C107.50753784 11.12025452 107.50753784 11.12025452 106.50753784 14.12025452 C56.01753784 14.61525452 56.01753784 14.61525452 4.50753784 15.12025452 C3.84753784 17.76025452 3.18753784 20.40025452 2.50753784 23.12025452 C4.28826439 23.12572296 4.28826439 23.12572296 6.10496521 23.13130188 C17.30193461 23.16827004 28.49862945 23.22606293 39.69538975 23.30415726 C45.45155019 23.34363797 51.20755751 23.3758237 56.96383667 23.39125061 C62.52073542 23.40641302 68.07721322 23.44085186 73.63392448 23.48856354 C75.75211869 23.5033815 77.87037299 23.51129577 79.98861885 23.51213837 C82.95965386 23.51450846 85.92952599 23.5415924 88.90036011 23.57435608 C89.77286407 23.56932571 90.64536804 23.56429535 91.54431152 23.55911255 C97.31185578 23.65728306 100.80735943 24.70327244 105.50753784 28.12025452 C106.85014581 32.14807844 106.99220791 36.02586141 107.25753784 40.24525452 C107.32585815 41.06252014 107.39417847 41.87978577 107.46456909 42.72181702 C107.82188456 48.51216 107.44816303 53.9897226 104.50753784 59.12025452 C102.32005468 61.53528315 100.54298363 62.95258669 97.27750587 63.48135948 C94.42769311 63.61354498 91.60312807 63.61457797 88.75045776 63.57435608 C87.6670813 63.57494019 86.58370483 63.57552429 85.46749878 63.5761261 C81.89067417 63.57334195 78.31468542 63.54223279 74.73800659 63.51087952 C72.25650996 63.50341834 69.77500744 63.49772483 67.29350281 63.49372864 C60.76511339 63.47846277 54.23708045 63.43917203 47.70883179 63.39491272 C41.04609906 63.3518181 34.38326262 63.33572204 27.72042847 63.31556702 C14.64930838 63.27267928 1.57845277 63.20441586 -11.49246216 63.12025452 C-11.49246216 58.50025452 -11.49246216 53.88025452 -11.49246216 49.12025452 C21.83753784 48.79025452 55.16753784 48.46025452 89.50753784 48.12025452 C90.49753784 45.48025452 91.48753784 42.84025452 92.50753784 40.12025452 C91.34544296 40.11438828 90.18334808 40.10852203 88.98603821 40.10247803 C78.02455526 40.04521945 67.06327009 39.9724412 56.10198879 39.8845396 C50.46692273 39.83984729 44.83192879 39.80058846 39.19674683 39.77381897 C33.75661037 39.74777492 28.31675158 39.70736424 22.87678719 39.65706825 C20.8032483 39.64040708 18.7296614 39.62888815 16.65606499 39.62264061 C13.74745579 39.61299155 10.83955575 39.58492204 7.93112183 39.55262756 C7.07731934 39.55406265 6.22351685 39.55549774 5.34384155 39.55697632 C-0.68723475 39.46251848 -5.85570196 38.63320574 -10.40066528 34.301651 C-12.7174824 29.67267941 -12.0034936 24.24894343 -11.99246216 19.18275452 C-12.03500122 17.41254944 -12.03500122 17.41254944 -12.07839966 15.60658264 C-12.10025903 5.95020578 -12.10025903 5.95020578 -9.08621216 2.86634827 C-5.67911839 0.57271737 -4.04789934 -0.00452785 0 0 Z " fill="#FFFFFF" transform="translate(716.4924621582031,-0.1202545166015625)"/>
<path d="M0 0 C0.9549234 -0.00412399 1.9098468 -0.00824799 2.89370728 -0.01249695 C4.46247871 0.00368179 4.46247871 0.00368179 6.0629425 0.02018738 C7.16553406 0.0197493 8.26812561 0.01931122 9.40412903 0.01885986 C13.05661085 0.02095357 16.70863636 0.04431266 20.36103821 0.0677948 C22.89023589 0.07338867 25.41943682 0.07765975 27.94863892 0.08065796 C33.93038766 0.09095064 39.91193987 0.11460617 45.89360982 0.14470643 C52.70368379 0.17823182 59.51376559 0.19473174 66.32390153 0.20979273 C80.33246793 0.24115536 94.34087845 0.29453132 108.34931946 0.36076355 C108.34931946 4.98076355 108.34931946 9.60076355 108.34931946 14.36076355 C74.02931946 14.36076355 39.70931946 14.36076355 4.34931946 14.36076355 C3.82757026 20.68994316 3.82757026 20.68994316 5.34931946 23.36076355 C6.50110687 23.36662979 7.65289429 23.37249603 8.83958435 23.37854004 C19.69836737 23.43577297 30.55695023 23.50853779 41.41552925 23.59647846 C46.9979368 23.64119051 52.58027123 23.68044497 58.16279602 23.7071991 C63.55105893 23.73322349 68.93904058 23.77362021 74.32712936 23.82394981 C76.38195673 23.84062429 78.43683275 23.85213494 80.49171829 23.85837746 C83.37179748 23.86801205 86.25115614 23.89606418 89.13105774 23.9283905 C90.40312828 23.92623787 90.40312828 23.92623787 91.70089722 23.92404175 C96.6509211 24.002528 100.04629816 24.65057491 104.34931946 27.36076355 C108.66035761 32.11777116 108.5597833 36.96289156 108.59931946 43.11076355 C108.61994446 43.89709167 108.64056946 44.6834198 108.66181946 45.49357605 C108.69681458 50.76034224 108.07701431 54.70763704 105.34931946 59.36076355 C100.07652253 64.04492721 95.42080905 63.91269422 88.57051086 63.81486511 C87.49674194 63.81544922 86.42297302 63.81603333 85.31666565 63.81663513 C81.77773895 63.81385487 78.239661 63.78276411 74.70088196 63.75138855 C72.24323486 63.74392599 69.78558181 63.73823313 67.32792664 63.73423767 C60.86695356 63.71898269 54.40634153 63.67970134 47.94551086 63.63542175 C41.34969466 63.59446654 34.75381998 63.57622607 28.15791321 63.55607605 C15.22155687 63.51320754 2.28546822 63.44495729 -10.65068054 63.36076355 C-10.65068054 58.74076355 -10.65068054 54.12076355 -10.65068054 49.36076355 C-9.37503738 49.35045609 -8.09939423 49.34014862 -6.78509521 49.32952881 C5.20830149 49.23197739 17.20164419 49.12926114 29.19495296 49.02142429 C35.36154283 48.96614565 41.5281374 48.91271789 47.69477844 48.8634491 C53.64052169 48.81587826 59.58620521 48.76353838 65.53187752 48.7078228 C67.80577173 48.68736614 70.07968235 48.66865868 72.35360527 48.65168953 C75.52663508 48.62771856 78.69955082 48.59765438 81.87251282 48.56608582 C82.82269287 48.56033035 83.77287292 48.55457489 84.75184631 48.54864502 C88.87743123 48.92120347 88.87743123 48.92120347 92.34931946 47.36076355 C92.39024883 45.02778922 92.39173669 42.6937113 92.34931946 40.36076355 C91.21228073 40.35489731 90.075242 40.34903107 88.90374756 40.34298706 C78.17772011 40.28572427 67.45189471 40.21294385 56.72607327 40.12504864 C51.21207585 40.08035954 45.69815208 40.04110002 40.18403625 40.014328 C34.86060598 39.98828071 29.5374593 39.94786779 24.21420479 39.89757729 C22.18532405 39.88091829 20.15639427 39.869398 18.12745476 39.86314964 C15.28110541 39.85349818 12.43548003 39.82542596 9.58930969 39.7931366 C8.75420868 39.79457169 7.91910767 39.79600677 7.05870056 39.79748535 C1.76582349 39.71280911 -1.94632565 38.83386248 -6.65068054 36.36076355 C-11.32126415 31.3788077 -10.86390546 25.9793059 -10.90068054 19.54826355 C-10.92130554 18.65816589 -10.94193054 17.76806824 -10.96318054 16.85099792 C-10.99916116 10.78376704 -10.24877003 6.59768759 -6.33685589 1.72388744 C-4.11667901 -0.07092955 -2.83499897 -0.00943951 0 0 Z " fill="#FFFFFF" transform="translate(10.650680541992188,-0.3607635498046875)"/>
<path d="M0 0 C1.01682358 -0.00861557 2.03364716 -0.01723114 3.08128357 -0.02610779 C6.43921429 -0.04879298 9.79631226 -0.04202426 13.15429688 -0.03295898 C15.48930103 -0.03819316 17.82430306 -0.04446888 20.15930176 -0.05174255 C25.05177768 -0.06215133 29.94396284 -0.05757779 34.83642578 -0.04296875 C41.10814005 -0.02577482 47.37893873 -0.04928226 53.65055084 -0.08445835 C58.47184325 -0.10641023 63.2929158 -0.10499623 68.11424255 -0.09669304 C70.42672226 -0.09587243 72.73921792 -0.10275672 75.051651 -0.11746407 C78.28370603 -0.1348696 81.51410557 -0.12039949 84.74609375 -0.09765625 C86.18008766 -0.11519455 86.18008766 -0.11519455 87.64305115 -0.13308716 C92.09805039 -0.0692538 94.21659894 0.04744176 97.88098145 2.76039124 C101.07292748 7.20374188 102.12611168 10.51637136 102.10009766 15.96630859 C102.09994659 17.02703079 102.09979553 18.08775299 102.09963989 19.18061829 C102.08931732 20.31412216 102.07899475 21.44762604 102.06835938 22.61547852 C102.06552948 23.78479416 102.06269958 24.9541098 102.05978394 26.15885925 C102.0486025 29.88799334 102.02350122 33.61688595 101.99804688 37.34594727 C101.98801446 39.87654275 101.97888907 42.40714201 101.97070312 44.93774414 C101.94866976 51.13640468 101.9141535 57.33488505 101.87304688 63.53344727 C96.92304687 63.53344727 91.97304688 63.53344727 86.87304688 63.53344727 C86.87304688 55.61344727 86.87304688 47.69344727 86.87304688 39.53344727 C84.53227051 39.53868408 82.19149414 39.5439209 79.77978516 39.54931641 C72.01659667 39.56594023 64.25340738 39.57695359 56.49020576 39.58525944 C51.78675514 39.59046185 47.08332287 39.59751115 42.37988281 39.60888672 C37.83465267 39.61980995 33.28944011 39.62574398 28.74419785 39.62832451 C27.0164042 39.63016183 25.28861144 39.63374945 23.56082535 39.63917732 C14.94116353 39.66516135 6.44015842 39.62994649 -2.12695312 38.53344727 C-2.12143433 39.28770996 -2.11591553 40.04197266 -2.11022949 40.8190918 C-2.08935453 43.84886457 -2.07701754 46.87862902 -2.06445312 49.90844727 C-2.05607422 50.98868164 -2.04769531 52.06891602 -2.0390625 53.18188477 C-2.03422852 54.72875977 -2.03422852 54.72875977 -2.02929688 56.30688477 C-2.02144165 57.73653564 -2.02144165 57.73653564 -2.01342773 59.19506836 C-2.12695312 61.53344727 -2.12695312 61.53344727 -3.12695312 63.53344727 C-8.07695313 63.53344727 -13.02695312 63.53344727 -18.12695312 63.53344727 C-18.20126289 56.25604471 -18.25563166 48.9788644 -18.29174805 41.70117188 C-18.30680872 39.22684887 -18.32726137 36.75255244 -18.35327148 34.27832031 C-18.38977342 30.71616036 -18.40670716 27.15435426 -18.41992188 23.59204102 C-18.43540573 22.49073349 -18.45088959 21.38942596 -18.46684265 20.25474548 C-18.46839903 13.10759695 -18.17607848 7.85175621 -13.14775085 2.3795166 C-8.78742175 -0.2851669 -5.01977938 -0.03426633 0 0 Z M-2.12695312 14.53344727 C-2.12695312 17.83344727 -2.12695312 21.13344727 -2.12695312 24.53344727 C27.24304688 24.53344727 56.61304688 24.53344727 86.87304688 24.53344727 C86.54304687 21.23344727 86.21304688 17.93344727 85.87304688 14.53344727 C56.83304688 14.53344727 27.79304687 14.53344727 -2.12695312 14.53344727 Z " fill="#FFFFFF" transform="translate(581.126953125,-0.533447265625)"/>
<path d="M0 0 C0.86915039 -0.00860046 1.73830078 -0.01720093 2.63378906 -0.02606201 C3.58964905 -0.03032196 4.54550903 -0.03458191 5.53033447 -0.03897095 C6.53536011 -0.04714844 7.54038574 -0.05532593 8.5758667 -0.06375122 C11.9125712 -0.08862924 15.24923308 -0.10512764 18.58599854 -0.11953735 C20.29309368 -0.12752287 20.29309368 -0.12752287 22.0346756 -0.13566971 C28.05861234 -0.16241205 34.08252827 -0.1817833 40.10650635 -0.19619751 C46.33215107 -0.21284579 52.55726647 -0.25762263 58.78271103 -0.30856895 C63.56624975 -0.34220858 68.34966236 -0.35377142 73.13330841 -0.35942459 C75.42824599 -0.36614635 77.72317501 -0.38139224 80.01799774 -0.4053154 C83.23088319 -0.43689738 86.44233486 -0.43701361 89.65533447 -0.42959595 C91.07697906 -0.45420395 91.07697906 -0.45420395 92.52734375 -0.47930908 C96.89776241 -0.43801646 99.92305341 -0.26540578 103.4263916 2.50286865 C106.56006105 5.92829626 106.97520984 8.25783854 107.01275635 12.72958374 C107.02236389 13.65419403 107.03197144 14.57880432 107.04187012 15.53143311 C107.04612 16.5283316 107.05036987 17.5252301 107.05474854 18.55233765 C107.06044861 19.57944855 107.06614868 20.60655945 107.07202148 21.66479492 C107.08146986 23.83856171 107.08800482 26.01234281 107.09185791 28.18612671 C107.10156532 31.50897225 107.13259138 34.83119974 107.16412354 38.15390015 C107.17065354 40.26587564 107.17590402 42.37785556 107.17974854 44.48983765 C107.19209534 45.48268768 107.20444214 46.47553772 107.21716309 47.49847412 C107.1884965 56.39059845 107.1884965 56.39059845 103.85162354 60.15390015 C99.1803354 63.90688469 94.70098505 63.57322587 88.98419189 63.5262146 C87.99502274 63.52986526 87.00585358 63.53351593 85.98670959 63.53727722 C82.72145347 63.54537434 79.45669484 63.5317802 76.19146729 63.5171814 C73.92133077 63.51666273 71.65119381 63.51718068 69.38105774 63.51869202 C64.62565396 63.51860233 59.87041985 63.50817983 55.11505127 63.49008179 C49.01613981 63.46738201 42.91747598 63.46685333 36.8185339 63.47359943 C32.13200169 63.47693877 27.44552607 63.47031016 22.75900459 63.4604702 C20.5099066 63.45661829 18.26080232 63.45546994 16.01170158 63.45705605 C12.87089896 63.4574264 9.7304154 63.44481509 6.58966064 63.42855835 C5.19235214 63.43227448 5.19235214 63.43227448 3.76681519 63.43606567 C2.91029861 63.42898087 2.05378204 63.42189606 1.17131042 63.41459656 C0.42930861 63.41254369 -0.3126932 63.41049082 -1.07717991 63.40837574 C-4.8770124 62.94151294 -6.81625704 61.52061916 -9.36297607 58.70858765 C-11.81631537 53.82405049 -11.74153982 49.67443621 -11.71478271 44.27890015 C-11.72098129 43.23620972 -11.72717987 42.19351929 -11.73356628 41.11923218 C-11.74065223 38.92051118 -11.73751194 36.72173639 -11.72479248 34.52304077 C-11.71092071 31.16461264 -11.74502551 27.80896849 -11.78314209 24.45077515 C-11.78409329 22.31014947 -11.78223441 20.16952031 -11.77728271 18.02890015 C-11.79054092 17.02874878 -11.80379913 16.02859741 -11.81745911 14.99813843 C-11.75672769 10.43749954 -11.67070602 7.17186092 -8.73406982 3.53671265 C-5.54407245 0.59701154 -4.19185298 0.03084433 0 0 Z M2.85162354 16.15390015 C2.45255964 20.57233563 2.52258996 25.00509854 2.53594971 29.43954468 C2.53911166 31.64561248 2.51564778 33.85034183 2.49029541 36.0562439 C2.48802265 37.45337762 2.48731881 38.85051495 2.48834229 40.24765015 C2.48536133 41.52317749 2.48238037 42.79870483 2.47930908 44.11288452 C2.60217285 45.11641968 2.72503662 46.11995483 2.85162354 47.15390015 C6.55315707 49.62158917 9.35973396 49.42897281 13.64019775 49.39682007 C14.82849686 49.39966759 14.82849686 49.39966759 16.040802 49.40257263 C18.66273866 49.40628077 21.28439893 49.39557362 23.90631104 49.3843689 C25.72850512 49.38317673 27.55069983 49.38272401 29.37289429 49.38298035 C33.19445639 49.38141528 37.01592484 49.3731254 40.83746338 49.35971069 C45.73233 49.34274496 50.62709343 49.33889571 55.52198601 49.33965588 C59.28637677 49.33938366 63.05074505 49.33389382 66.81512833 49.32665443 C68.61961827 49.32347517 70.42411077 49.32150209 72.22860336 49.32076073 C74.75386624 49.31858793 77.27902075 49.30982268 79.80426025 49.29916382 C80.5483313 49.299617 81.29240234 49.30007019 82.059021 49.30053711 C85.87149327 49.27705672 89.06940156 48.91034454 92.85162354 48.15390015 C92.85162354 36.93390015 92.85162354 25.71390015 92.85162354 14.15390015 C81.41239307 14.10877908 69.97322138 14.07205898 58.5339222 14.0502758 C53.22263416 14.03982286 47.91140997 14.02563618 42.60015869 14.00302124 C37.47789759 13.98134662 32.35569803 13.96934291 27.23339462 13.96414566 C25.27569484 13.9604402 23.31799855 13.95320474 21.36032486 13.94244003 C18.62574133 13.92799657 15.89141463 13.92591919 13.15679932 13.92684937 C11.93328766 13.91606354 11.93328766 13.91606354 10.68505859 13.90505981 C6.30027251 13.74447386 6.30027251 13.74447386 2.85162354 16.15390015 Z " fill="#FFFFFF" transform="translate(152.14837646484375,-0.153900146484375)"/>
<path d="M0 0 C4.62 0 9.24 0 14 0 C14.01981934 1.38300293 14.03963867 2.76600586 14.06005859 4.19091797 C14.13597284 9.30862028 14.22471163 14.42603296 14.31738281 19.54345703 C14.35573134 21.7608469 14.39057371 23.97830024 14.421875 26.19580078 C14.46739826 29.37816089 14.52541319 32.56008182 14.5859375 35.7421875 C14.59748871 36.73805878 14.60903992 37.73393005 14.62094116 38.75997925 C14.64081085 39.68078278 14.66068054 40.6015863 14.68115234 41.55029297 C14.69447601 42.3630368 14.70779968 43.17578064 14.7215271 44.01315308 C14.82899081 46.23040058 14.82899081 46.23040058 17 48 C19.63449419 48.19320236 22.16341669 48.2622973 24.79858398 48.24291992 C26.00611328 48.24576744 26.00611328 48.24576744 27.23803711 48.24867249 C29.90748741 48.2523866 32.57666749 48.24166614 35.24609375 48.23046875 C37.09692859 48.22927707 38.94776404 48.22882376 40.79859924 48.2290802 C44.68160782 48.22751417 48.56452435 48.21921618 52.44750977 48.20581055 C57.428919 48.1888324 62.41022687 48.18499583 67.39166164 48.18575573 C71.21516388 48.18548397 75.0386439 48.18000152 78.86213875 48.17275429 C80.69898371 48.16956819 82.53583119 48.16760035 84.37267876 48.16686058 C86.93917007 48.16469573 89.50555333 48.15594795 92.07202148 48.14526367 C93.21529655 48.14594345 93.21529655 48.14594345 94.38166809 48.14663696 C97.52364602 48.1274827 99.99622234 48.00125922 103 47 C103.33 31.49 103.66 15.98 104 0 C108.95 0 113.9 0 119 0 C119.17347426 7.68624427 119.30027886 15.37134091 119.38452148 23.05908203 C119.41965066 25.67223977 119.46736545 28.28526064 119.52807617 30.89794922 C119.61331785 34.66147677 119.65276668 38.42318082 119.68359375 42.1875 C119.71972275 43.34926758 119.75585175 44.51103516 119.79307556 45.70800781 C119.79360428 46.80854492 119.794133 47.90908203 119.79467773 49.04296875 C119.81799416 50.48192505 119.81799416 50.48192505 119.84178162 51.94995117 C118.51612767 56.75322698 115.96360994 59.99747489 112 63 C108.55893963 64.09249842 105.3422041 64.0576854 101.75366211 63.97167969 C100.24502846 63.98306976 100.24502846 63.98306976 98.70591736 63.99468994 C95.39510661 64.00945964 92.08784004 63.9668111 88.77734375 63.921875 C86.47002067 63.91710357 84.16268972 63.91529605 81.85536194 63.9163208 C77.02571789 63.91007224 72.19726447 63.87700193 67.36791992 63.82324219 C61.18157182 63.75524356 54.99652971 63.73998647 48.80985165 63.74302292 C44.04764876 63.74193459 39.28573061 63.7199864 34.52362251 63.69101715 C32.24270341 63.6783018 29.9617521 63.67040818 27.68079948 63.66744232 C24.49228984 63.6587557 21.30515642 63.62371578 18.11694336 63.58105469 C17.17703552 63.58286743 16.23712769 63.58468018 15.26873779 63.58654785 C9.70369045 63.47782255 6.37609507 62.7765555 2 59 C-0.25779693 55.6133046 -0.24486783 54.48309149 -0.22705078 50.51879883 C-0.22689972 49.39786331 -0.22674866 48.2769278 -0.22659302 47.12202454 C-0.21627045 45.91257675 -0.20594788 44.70312897 -0.1953125 43.45703125 C-0.1924826 42.21829758 -0.18965271 40.9795639 -0.18673706 39.70329285 C-0.17743186 36.41361913 -0.15946791 33.12414137 -0.1373291 29.83453369 C-0.1168527 26.47630206 -0.10773152 23.11804172 -0.09765625 19.75976562 C-0.07558268 13.17309037 -0.04104577 6.58658326 0 0 Z " fill="#FFFFFF" transform="translate(282,0)"/>
<path d="M0 0 C39.27 0 78.54 0 119 0 C119 4.62 119 9.24 119 14 C101.84 14 84.68 14 67 14 C67 30.17 67 46.34 67 63 C62.05 63 57.1 63 52 63 C52 46.83 52 30.66 52 14 C34.84 14 17.68 14 0 14 C0 9.38 0 4.76 0 0 Z " fill="#FFFFFF" transform="translate(845,0)"/>
<path d="M0 0 C39.6 0 79.2 0 120 0 C120 4.95 120 9.9 120 15 C104.50160095 15.02311934 89.0032044 15.04097941 73.50479221 15.05181217 C66.30909705 15.05697503 59.11341278 15.06401753 51.91772461 15.07543945 C45.64815306 15.0853866 39.37858939 15.0918535 33.10901016 15.09408849 C29.78734379 15.09539555 26.46570534 15.09899997 23.14404488 15.10573006 C19.44180053 15.11293628 15.73960369 15.11399112 12.03735352 15.11352539 C10.3736396 15.1189183 10.3736396 15.1189183 8.67631531 15.12442017 C7.67365631 15.1230455 6.67099731 15.12167084 5.63795471 15.12025452 C4.76132958 15.12117631 3.88470446 15.1220981 2.98151493 15.12304783 C1 15 1 15 0 14 C0 9.38 0 4.76 0 0 Z " fill="#FFFFFF" transform="translate(422,24)"/>
<path d="M0 0 C39.6 0 79.2 0 120 0 C120 4.62 120 9.24 120 14 C80.4 14 40.8 14 0 14 C0 9.38 0 4.76 0 0 Z " fill="#FFFFFF" transform="translate(422,49)"/>
<path d="M0 0 C39.6 0 79.2 0 120 0 C120 4.62 120 9.24 120 14 C80.4 14 40.8 14 0 14 C0 9.38 0 4.76 0 0 Z " fill="#FFFFFF" transform="translate(422,0)"/>
</svg>
